500 0 1 0           
33 Autodesk Inventor 15.0.0000.23900 19 ASM 216.0.0.5110 NT 24 Tue Mar 22 18:15:58 2011 
1 9.9999999999999995e-007 1e-010 
body $-1 $1 $-1 $-1 #
lump $-1 $-1 $2 $0 #
shell $-1 $-1 $-1 $3 $-1 $1 #
face $-1 $4 $5 $2 $-1 $6 forward single #
face $-1 $7 $8 $2 $-1 $9 forward single #
loop $-1 $-1 $10 $3 #
plane-surface $-1 60.033173201779242 710.81381425173277 0 -0.99862953475457394 0 0.052335956242943862 0 10 0 reverse_v I I I I #
face $-1 $11 $12 $2 $-1 $13 forward single #
loop $-1 $-1 $14 $4 #
plane-surface $-1 60.033173201779242 641.98479719779334 0 0 -0.99862953475457394 0.052335956242943314 -10 0 0 reverse_v I I I I #
coedge $-1 $15 $16 $17 $18 reversed $5 $-1 #
face $-1 $19 $20 $2 $-1 $21 forward single #
loop $-1 $-1 $22 $7 #
plane-surface $-1 113.25846078273825 641.98479719779334 0 0.99862953475457394 0 0.052335956242943862 0 -10 0 reverse_v I I I I #
coedge $-1 $23 $24 $25 $26 reversed $8 $-1 #
coedge $-1 $27 $10 $28 $29 reversed $5 $-1 #
coedge $-1 $10 $30 $31 $32 reversed $5 $-1 #
coedge $-1 $33 $34 $10 $18 forward $35 $-1 #
edge $-1 $36 -5.8255109301507986 $37 -2.5937513041135389 $17 $38 forward 7 unknown #
face $-1 $39 $40 $2 $-1 $41 forward single #
loop $-1 $-1 $42 $11 #
plane-surface $-1 113.25846078273825 710.81381425173277 0 0 0.99862953475457394 0.052335956242943314 10 0 0 reverse_v I I I I #
coedge $-1 $43 $44 $45 $46 reversed $12 $-1 #
coedge $-1 $47 $14 $48 $49 reversed $8 $-1 #
coedge $-1 $14 $47 $43 $50 forward $8 $-1 #
coedge $-1 $45 $51 $14 $26 forward $40 $-1 #
edge $-1 $52 -4.6412276274163649 $53 -0.68130113067953602 $14 $54 forward 7 unknown #
coedge $-1 $48 $15 $55 $56 reversed $5 $-1 #
coedge $-1 $57 $58 $15 $29 forward $59 $-1 #
edge $-1 $60 -0.065333137741842087 $36 7.9456456302415264 $28 $61 forward 7 unknown #
coedge $-1 $16 $48 $51 $62 reversed $5 $-1 #
coedge $-1 $63 $42 $16 $32 forward $20 $-1 #
edge $-1 $37 7.8828530508252301 $64 12.896567119903063 $16 $65 forward 7 unknown #
coedge $-1 $66 $17 $42 $67 forward $35 $-1 #
coedge $-1 $17 $68 $57 $69 forward $35 $-1 #
loop $-1 $-1 $33 $70 #
vertex $-1 $29 $71 #
vertex $-1 $67 $72 #
straight-curve $-1 64.225795544422525 732.55870495022475 80 0 10 0 F -5.8255109301507986 F -2.5937513041135389 #
face $-1 $73 $74 $2 $-1 $75 forward single #
loop $-1 $-1 $25 $19 #
plane-surface $-1 86.645816992258759 676.39930572476317 130 0 0 1 -10 0 0 reverse_v I I I I #
coedge $-1 $31 $76 $33 $67 reversed $20 $-1 #
coedge $-1 $77 $22 $24 $50 reversed $12 $-1 #
coedge $-1 $22 $77 $78 $79 forward $12 $-1 #
coedge $-1 $80 $25 $22 $46 forward $40 $-1 #
edge $-1 $53 -6.2016005747144192 $81 -0.6813011306795147 $22 $82 forward 7 unknown #
coedge $-1 $24 $23 $83 $84 reversed $8 $-1 #
coedge $-1 $30 $27 $23 $49 forward $5 $-1 #
edge $-1 $85 -0.17986545923504149 $52 12.855791120367321 $23 $86 forward 7 unknown #
edge $-1 $87 -0.13908945969930214 $53 12.896567119903063 $43 $88 forward 7 unknown #
coedge $-1 $25 $80 $30 $62 forward $40 $-1 #
vertex $-1 $49 $89 #
vertex $-1 $50 $90 #
straight-curve $-1 113.25846078273825 648.7978085045886 130 10 0 0 F -4.6412276274163649 F -0.68130113067953602 #
coedge $-1 $91 $92 $27 $56 forward $93 $-1 #
edge $-1 $85 4.4099407429750244 $60 7.6418205880673753 $55 $94 forward 7 unknown #
coedge $-1 $95 $28 $34 $69 reversed $59 $-1 #
coedge $-1 $28 $95 $91 $96 reversed $59 $-1 #
loop $-1 $-1 $28 $97 #
vertex $-1 $96 $98 #
straight-curve $-1 60.067365924159958 674.30359564871674 0.6524360094719226 0.5233595624294386 1.0937333390435945e-016 9.9862953475457399 F -0.065333137741842087 F 7.9456456302415264 #
edge $-1 $64 -6.2016005747144192 $52 -0.6813011306795147 $30 $99 forward 7 unknown #
coedge $-1 $78 $31 $80 $100 reversed $20 $-1 #
vertex $-1 $32 $101 #
straight-curve $-1 60.1058675118664 710.74111994164559 1.3870900671932853 0.52264427688713955 -0.522644276887134 9.972646886342373 F 7.8828530508252301 F 12.896567119903063 #
coedge $-1 $102 $33 $103 $104 reversed $35 $-1 #
edge $-1 $37 -1.3653434846946597 $105 0.71207696086309014 $33 $106 forward 7 unknown #
coedge $-1 $34 $107 $108 $109 forward $35 $-1 #
edge $-1 $110 2.077420445557749 $36 14.922579554442258 $57 $111 forward 7 unknown #
face $-1 $112 $35 $2 $-1 $113 forward single #
point $-1 64.225795544422539 674.30359564871674 80 #
point $-1 64.225795544422539 706.62119190908936 80 #
face $-1 $114 $93 $2 $-1 $115 forward single #
loop $-1 $-1 $116 $39 #
plane-surface $-1 85 834.30359564871674 0 1 2.2204460492503136e-016 0 0 0 -10 forward_v I I I I #
coedge $-1 $42 $117 $116 $118 reversed $20 $-1 #
coedge $-1 $44 $43 $119 $120 reversed $12 $-1 #
coedge $-1 $117 $63 $44 $79 reversed $20 $-1 #
edge $-1 $121 -0.17986545923504149 $81 12.855791120367321 $78 $122 forward 7 unknown #
coedge $-1 $51 $45 $63 $100 forward $40 $-1 #
vertex $-1 $79 $123 #
straight-curve $-1 106.44544947594289 710.81381425173277 130 0 10 0 F -6.2016005747144192 F -0.6813011306795147 #
coedge $-1 $124 $125 $47 $84 forward $126 $-1 #
edge $-1 $87 -14.226907616730252 $85 -8.9043788586343524 $83 $127 forward 7 unknown #
vertex $-1 $128 $129 #
straight-curve $-1 60.127178854658112 642.07880285067199 1.7937347120008833 0.52264427688713955 0.522644276887134 9.972646886342373 F -0.17986545923504149 F 12.855791120367321 #
vertex $-1 $84 $130 #
straight-curve $-1 113.1857664726511 642.05749150788051 1.3870900671932853 -0.52264427688713955 0.522644276887134 9.972646886342373 F -0.13908945969930214 F 12.896567119903063 #
point $-1 66.846184508574595 648.79780850458837 130 #
point $-1 106.44544947594289 648.7978085045886 130 #
coedge $-1 $131 $55 $58 $96 forward $93 $-1 #
coedge $-1 $55 $131 $124 $128 reversed $93 $-1 #
loop $-1 $-1 $55 $73 #
straight-curve $-1 60.033173201779235 597.88538976804307 0 0 10 0 F 4.4099407429750244 F 7.6418205880673753 #
coedge $-1 $58 $57 $132 $133 forward $59 $-1 #
edge $-1 $60 -4.654378858634348 $134 7.3522557817215004 $91 $135 forward 7 unknown #
face $-1 $136 $59 $2 $-1 $137 forward single #
point $-1 60.033173201779242 674.30359564871674 0 #
straight-curve $-1 66.846184508574595 641.98479719779334 130 0 -10 0 F -6.2016005747144192 F -0.6813011306795147 #
edge $-1 $81 -4.6412276274163649 $64 -0.68130113067953513 $63 $138 forward 7 unknown #
point $-1 66.846184508574595 704.0008029449375 130 #
coedge $-1 $139 $66 $140 $141 reversed $35 $-1 #
coedge $-1 $116 $142 $66 $104 forward $74 $-1 #
edge $-1 $143 0 $105 12.768240373962726 $103 $144 forward 7 unknown #
vertex $-1 $118 $145 #
straight-curve $-1 77.879230391369134 706.62119190908948 79.999999999999986 10 0 0 F -1.3653434846946597 F 0.71207696086309014 #
coedge $-1 $68 $139 $146 $147 forward $35 $-1 #
coedge $-1 $148 $132 $68 $109 reversed $149 $-1 #
edge $-1 $150 2.5937513041135389 $110 5.8255109301507986 $68 $151 forward 7 unknown #
vertex $-1 $69 $152 #
straight-curve $-1 -85.000000000000028 674.30359564871674 80 10 -2.0898315757649998e-015 0 F 2.077420445557749 F 14.922579554442258 #
face $-1 $153 $154 $2 $-1 $155 reversed single #
plane-surface $-1 42.500000000000007 754.30359564871674 80 0 0 1 10 0 0 forward_v I I I I #
face $-1 $156 $157 $2 $-1 $115 forward single #
plane-surface $-1 -58.021230769128479 484.95696528435337 0 0 0 1 10 0 0 forward_v I I I I #
coedge $-1 $158 $103 $76 $118 forward $74 $-1 #
coedge $-1 $76 $78 $159 $160 reversed $20 $-1 #
edge $-1 $105 -8.3341265577655275 $161 -0.32314778978215936 $116 $162 forward 7 unknown #
coedge $-1 $163 $159 $77 $120 forward $157 $-1 #
edge $-1 $121 -14.734293301065946 $87 -7.8513915956719984 $119 $164 forward 7 unknown #
vertex $-1 $120 $165 #
straight-curve $-1 113.16445512985938 710.719808598854 1.7937347120008833 -0.52264427688713955 -0.522644276887134 9.972646886342373 F -0.17986545923504149 F 12.855791120367321 #
point $-1 106.44544947594289 704.00080294493762 130 #
coedge $-1 $166 $83 $92 $128 forward $126 $-1 #
coedge $-1 $83 $167 $163 $168 forward $126 $-1 #
loop $-1 $-1 $169 $170 #
straight-curve $-1 -29.010615384564275 641.98479719779334 0 -10 -4.736863745343909e-015 0 F -14.226907616730252 F -8.9043788586343524 #
edge $-1 $85 -8.9043788586343524 $171 3.1022557817214969 $92 $172 forward 7 unknown #
point $-1 60.033173201779242 641.98479719779334 0 #
point $-1 113.25846078273825 641.98479719779334 0 #
coedge $-1 $92 $91 $173 $174 forward $93 $-1 #
coedge $-1 $108 $173 $95 $133 reversed $149 $-1 #
edge $-1 $110 -8.3905012583065481 $134 -0.37952249032318092 $95 $175 forward 7 unknown #
vertex $-1 $133 $176 #
straight-curve $-1 13.48938461543576 674.30359564871674 0 -10 -2.0898315757649998e-015 0 F -4.654378858634348 F 7.3522557817215004 #
face $-1 $70 $177 $2 $-1 $178 forward single #
plane-surface $-1 85.000000000000028 674.30359564871674 0 2.0898315757649998e-016 -1 0 0 0 -10 forward_v I I I I #
straight-curve $-1 60.033173201779242 704.0008029449375 130 -10 0 0 F -4.6412276274163649 F -0.68130113067953513 #
coedge $-1 $107 $102 $179 $180 forward $35 $-1 #
coedge $-1 $181 $182 $102 $141 forward $177 $-1 #
edge $-1 $183 -8.5 $143 8.5 $140 $184 forward 7 unknown #
coedge $-1 $103 $158 $181 $185 forward $74 $-1 #
vertex $-1 $185 $186 #
straight-curve $-1 85 834.30359564871674 80 2.2204460492503135e-015 -10 0 F 0 F 12.768240373962726 #
point $-1 85.000000000000028 706.62119190908948 80 #
coedge $-1 $187 $188 $107 $147 reversed $189 $-1 #
edge $-1 $190 -4.9620769608630919 $150 -2.8846565153053416 $107 $191 forward 7 unknown #
coedge $-1 $192 $108 $188 $193 forward $149 $-1 #
loop $-1 $-1 $132 $156 #
vertex $-1 $147 $194 #
straight-curve $-1 -64.225795544422539 732.55870495022475 80 0 -10 0 F 2.5937513041135389 F 5.8255109301507986 #
point $-1 -64.225795544422539 674.30359564871674 80 #
face $-1 $195 $196 $2 $-1 $197 reversed single #
loop $-1 $-1 $198 $112 #
spline-surface $-1 reversed { exactsur full nubs 3 3 open open none none 2 2 
	0 3 1 3 
	0 3 0.50000000000000067 3 
	96.889309902137839 -2.8306003218644849e-014 -130.00000000000009 
	113.66958769445411 23.167372866758559 -130.00000000000011 
	125.00000000000007 86.598355443546069 -130.00000000000011 
	125.00000000000009 141.43521958264398 -130.00000000000011 
	101.57442491844819 -2.3588336015537367e-014 -108.3333333333334 
	115.55798974537841 30.804539615414836 -108.33333333333341 
	125.00000000000006 95.162087322520378 -108.33333333333343 
	125.00000000000006 152.35786966488467 -108.33333333333343 
	106.25953993475852 -1.8870668812429885e-014 -86.6666666666667 
	117.44639179630271 38.441706364071003 -86.666666666666728 
	125 103.72581920149479 -86.666666666666714 
	125.00000000000003 163.28051974712537 -86.666666666666714 
	110.94465495106887 -1.4153001609322405e-014 -65.000000000000014 
	119.334793847227 46.07887311272728 -65.000000000000028 
	124.99999999999999 112.2895510804691 -65.000000000000028 
	125 174.20316982936606 -65.000000000000028 
	0 
	0 
	0 
	0 
	0 
	0 
	0 
	F 1 F 0 F 1 F 0 } I I I I #
face $-1 $199 $149 $2 $-1 $200 forward single #
loop $-1 $-1 $159 $114 #
coedge $-1 $142 $116 $201 $202 reversed $74 $-1 #
coedge $-1 $119 $201 $117 $160 forward $157 $-1 #
edge $-1 $161 5.738138499319513 $121 8.5639845775933363 $159 $203 forward 7 unknown #
vertex $-1 $160 $204 #
straight-curve $-1 85.000000000000014 710.98293673759315 -3.2270492696712689 -1.1620916727338077e-016 0.52335956242943316 -9.9862953475457399 F -8.3341265577655275 F -0.32314778978215936 #
coedge $-1 $205 $119 $125 $168 reversed $157 $-1 #
straight-curve $-1 113.25846078273825 563.47088124107336 -5.5511151231257827e-016 0 -10 0 F -14.734293301065946 F -7.8513915956719984 #
point $-1 113.25846078273825 710.81381425173277 0 #
coedge $-1 $206 $124 $207 $208 forward $126 $-1 #
coedge $-1 $125 $209 $210 $211 reversed $126 $-1 #
edge $-1 $212 -15.401061538456439 $87 -14.226907616730252 $163 $213 forward 7 unknown #
coedge $-1 $209 $206 $214 $215 forward $126 $-1 #
face $-1 $216 $126 $2 $-1 $217 forward single #
vertex $-1 $208 $218 #
straight-curve $-1 -29.010615384564275 641.98479719779334 0 -10 -4.736863745343909e-015 0 F -8.9043788586343524 F 3.1022557817214969 #
coedge $-1 $132 $219 $131 $174 reversed $149 $-1 #
edge $-1 $134 -7.6418205880673753 $171 -4.4099407429750244 $131 $220 forward 7 unknown #
straight-curve $-1 -59.834546477311569 674.30359564871674 -3.7900236794033537 0.5233595624294386 1.0937333390435945e-016 -9.9862953475457399 F -8.3905012583065481 F -0.37952249032318092 #
point $-1 -60.033173201779242 674.30359564871674 0 #
loop $-1 $-1 $140 $136 #
plane-surface $-1 0 834.30359564871674 0 0 1 0 0 0 10 forward_v I I I I #
coedge $-1 $221 $222 $139 $180 reversed $223 $-1 #
edge $-1 $183 0 $190 12.768240373962726 $179 $224 forward 7 unknown #
coedge $-1 $225 $140 $142 $185 reversed $177 $-1 #
coedge $-1 $140 $225 $221 $226 forward $177 $-1 #
vertex $-1 $226 $227 #
straight-curve $-1 0 834.30359564871674 80 10 0 0 F -8.5 F 8.5 #
edge $-1 $228 0 $143 8 $142 $229 forward 7 unknown #
point $-1 85 834.30359564871674 80 #
coedge $-1 $230 $146 $222 $231 reversed $189 $-1 #
coedge $-1 $146 $232 $148 $193 reversed $189 $-1 #
loop $-1 $-1 $146 $199 #
vertex $-1 $231 $233 #
straight-curve $-1 -35.37923039136912 706.62119190908948 79.999999999999986 10 0 0 F -4.9620769608630919 F -2.8846565153053416 #
coedge $-1 $219 $148 $234 $235 forward $149 $-1 #
edge $-1 $150 7.8828530508252301 $236 12.896567119903063 $148 $237 forward 7 unknown #
point $-1 -64.225795544422539 706.62119190908936 80 #
face $-1 $170 $238 $2 $-1 $239 reversed single #
loop $-1 $-1 $210 $153 #
plane-surface $-1 125.00000000000009 141.43521958264398 -130.00000000000011 -1 3.9012584725683727e-016 -1.4899645210590795e-015 1.4899645210590794e-014 2.8108120702841225e-046 -10 reverse_v I I I I #
coedge $-1 $240 $241 $242 $243 forward $154 $244 #
face $-1 $245 $189 $2 $-1 $246 forward single #
plane-surface $-1 -60.033173201779242 710.81381425173277 0 0.99862953475457394 0 0.052335956242943862 0 10 0 forward_v I I I I #
coedge $-1 $159 $247 $158 $202 forward $157 $-1 #
edge $-1 $228 -17.467331518218174 $161 -5.118353378519771 $201 $248 forward 7 unknown #
straight-curve $-1 27.618615006804887 710.81381425173277 -1.1102230246251565e-015 10 0 0 F 5.738138499319513 F 8.5639845775933363 #
point $-1 85.000000000000014 710.81381425173277 0 #
coedge $-1 $249 $163 $250 $251 forward $157 $-1 #
coedge $-1 $169 $166 $252 $253 forward $126 $-1 #
coedge $-1 $254 $255 $166 $208 reversed $256 $-1 #
edge $-1 $171 3.1022557817214969 $257 8.4247845398173986 $166 $258 forward 7 unknown #
coedge $-1 $167 $169 $259 $260 forward $126 $-1 #
coedge $-1 $261 $250 $167 $211 forward $196 $-1 #
edge $-1 $212 -22.293294110299257 $262 -13.100905954874147 $210 $263 forward 7 unknown #
vertex $-1 $251 $264 #
straight-curve $-1 -29.010615384564275 641.98479719779334 0 -10 -4.736863745343909e-015 0 F -15.401061538456439 F -14.226907616730252 #
coedge $-1 $265 $266 $169 $215 reversed $267 $-1 #
edge $-1 $268 -22.293294110299257 $269 -13.100905954874147 $214 $270 forward 7 unknown #
face $-1 $271 $272 $2 $-1 $273 forward single #
plane-surface $-1 3.2293386611448032e-030 641.98479719779334 -1.4418867361235237e-045 3.3494684758893862e-016 -0.70710678118654768 0.70710678118654735 10 0 -4.7368637453439113e-015 forward_v I I I I #
point $-1 -60.033173201779242 641.98479719779334 0 #
coedge $-1 $173 $192 $254 $274 reversed $149 $-1 #
straight-curve $-1 -60.033173201779242 597.88538976804307 0 0 -10 0 F -7.6418205880673753 F -4.4099407429750244 #
coedge $-1 $275 $179 $182 $226 reversed $223 $-1 #
coedge $-1 $179 $275 $187 $231 forward $223 $-1 #
loop $-1 $-1 $222 $276 #
straight-curve $-1 -85 834.30359564871674 80 -2.2204460492503135e-015 -10 0 F 0 F 12.768240373962726 #
coedge $-1 $182 $181 $247 $277 reversed $177 $-1 #
edge $-1 $278 0 $183 8 $221 $279 forward 7 unknown #
point $-1 -85 834.30359564871674 80 #
vertex $-1 $202 $280 #
straight-curve $-1 85 834.30359564871674 0 0 0 10 F 0 F 8 #
coedge $-1 $281 $187 $282 $283 reversed $189 $-1 #
edge $-1 $284 0.32314778978215936 $190 8.3341265577655275 $222 $285 forward 7 unknown #
coedge $-1 $188 $281 $286 $287 forward $189 $-1 #
point $-1 -85.000000000000028 706.62119190908948 80 #
coedge $-1 $286 $288 $192 $235 reversed $289 $-1 #
edge $-1 $236 -6.2016005747144192 $290 -0.6813011306795147 $192 $291 forward 7 unknown #
vertex $-1 $193 $292 #
straight-curve $-1 -60.1058675118664 710.74111994164559 1.3870900671932853 -0.52264427688713955 -0.522644276887134 9.972646886342373 F 7.8828530508252301 F 12.896567119903063 #
loop $-1 $-1 $293 $195 #
spline-surface $-1 reversed { exactsur full nubs 3 3 open open none none 30 2 
	0 3 0.035714285714285712 1 0.071428571428571425 1 0.10714285714285714 1 0.14285714285714285 1 
	0.19047619047619047 1 0.23809523809523808 1 0.2857142857142857 1 0.29761904761904762 1 0.30952380952380953 1 
	0.33333333333333331 1 0.38095238095238093 1 0.42857142857142855 1 0.47619047619047616 1 0.52380952380952372 1 
	0.5714285714285714 1 0.59523809523809512 1 0.61904761904761896 1 0.64285714285714279 1 0.65476190476190466 1 
	0.69047619047619047 1 0.71428571428571419 1 0.74999999999999989 1 0.78571428571428559 1 0.8214285714285714 1 
	0.8571428571428571 1 0.89285714285714279 1 0.9285714285714286 1 0.9642857142857143 1 1 3 
	0 3 1 3 
	125.00000000000014 526.18359062248396 -130.00000000000011 
	125.00000000000014 530.76392837295828 -130.00000000000011 
	124.88368012359142 540.33697174745998 -130.00000000000014 
	124.33582747688254 555.89514733968554 -130.00000000000017 
	123.40143422056045 572.59324290966174 -130.0000000000002 
	121.93161437146 592.32398306352877 -130.00000000000026 
	119.77123300259998 615.39772366887598 -130.00000000000031 
	116.7783143483789 641.98673511204288 -130.00000000000037 
	114.10294277640536 662.73193666184034 -130.00000000000054 
	112.16240996839898 676.77471565399208 -130.00000000000054 
	110.82845218236875 686.18437807164787 -130.00000000000054 
	108.39220238344902 702.75395852708618 -130.00000000000043 
	104.64415473515925 726.58441869103319 -130.00000000000037 
	99.782725933236605 754.99164622967385 -130.00000000000028 
	94.605593221552169 782.7575033474784 -130.00000000000026 
	89.133964106908593 809.4385809536916 -130.0000000000002 
	84.321682362372457 830.41637176300389 -130.00000000000011 
	80.297281244613089 846.25181144723513 -130.00000000000006 
	77.182095437383026 857.61161099848516 -130.00000000000006 
	74.496235637985677 866.6129690339468 -130.00000000000003 
	71.181949273260443 876.96844732799957 -130 
	67.738851813877844 886.71095984279282 -130 
	62.890888843148367 898.60314957424418 -130 
	57.753632521240284 909.35551205231036 -130 
	51.513386482123344 919.84522554982243 -130.00000000000003 
	44.736418052318868 928.68418066974482 -130.00000000000003 
	37.34454782310582 935.85142838976742 -130 
	29.260143680793483 941.3490860496961 -130.00000000000003 
	20.409470219738395 945.20190482000135 -130.00000000000003 
	10.726171821067025 947.45632376734113 -130 
	3.6785976125544497 947.93825740556463 -130 
	-8.2414247024046145e-014 947.93825740556463 -130 
	125.00000000000013 601.91110763130519 -86.666666666666785 
	124.99998135675557 606.32296018448289 -86.666666666666814 
	124.8843323868676 615.45863366026367 -86.666666666666785 
	124.34950528246016 630.0457978780986 -86.666666666666885 
	123.44645224993234 645.4511992311725 -86.666666666666814 
	122.03430942957078 663.39013045135505 -86.666666666666984 
	119.96536130361118 684.04922157611077 -86.666666666666927 
	117.09633344700367 707.49301748838923 -86.666666666667084 
	114.51835019895537 725.54414566275318 -86.666666666667183 
	112.63771008345788 737.67681148508643 -86.666666666667254 
	111.34182899471389 745.78472998402606 -86.666666666667126 
	108.96616428564246 760.00687747833854 -86.666666666667211 
	105.28007612649483 780.31622259578387 -86.666666666666956 
	100.4328223450612 804.33608370826846 -86.66666666666697 
	95.194131103920085 827.66437832053134 -86.66666666666697 
	89.577626974176326 849.96984962827162 -86.666666666666814 
	84.57707045049122 867.44312946518119 -86.666666666666799 
	80.368384642825561 880.60974176747436 -86.666666666666714 
	77.10119685724095 890.04635857853464 -86.666666666666742 
	74.279934925713221 897.51932086743375 -86.666666666666657 
	70.798603451512506 906.11441748148252 -86.666666666666728 
	67.184529226725303 914.19948742367615 -86.666666666666643 
	62.115400966354706 924.07193470453944 -86.666666666666742 
	56.773782357826455 933.00480432963559 -86.666666666666629 
	50.348281411325573 941.73318998248021 -86.666666666666771 
	43.454354039342213 949.10471139769447 -86.666666666666643 
	36.038029603631784 955.10011148004889 -86.666666666666771 
	28.045561445649728 959.71641057617194 -86.666666666666629 
	19.425586916433375 962.96673911213065 -86.666666666666757 
	10.131549541804215 964.87968618253308 -86.6666666666666 
	3.4597665882420205 965.29215440524649 -86.6666666666667 
	-4.6061047152362844e-014 965.29217160370968 -86.666666666666671 
	125.00000000000013 677.63862464012641 -43.333333333333442 
	125.0000186432447 681.88187950530198 -43.333333333333414 
	124.88495929545014 690.58035904569647 -43.333333333333471 
	124.36319229617655 704.19644422951831 -43.3333333333334 
	123.49144347141497 718.30923862668351 -43.333333333333499 
	122.13695487312236 734.45642577564479 -43.333333333333378 
	120.15952974243983 752.70065738432208 -43.333333333333492 
	117.41440482293497 772.99915937247749 -43.3333333333334 
	114.93380529446161 788.35618739646134 -43.333333333333456 
	113.1130350476374 798.5788996500786 -43.333333333333393 
	111.85524139959358 805.38505205555703 -43.333333333333513 
	109.5401656795199 817.25976444822686 -43.333333333333314 
	105.91594246211226 834.04792251121489 -43.333333333333506 
	101.08299572480678 853.68050139959496 -43.333333333333407 
	95.78256859541483 872.5712601253432 -43.333333333333378 
	90.02135249389562 890.50109182391998 -43.333333333333464 
	84.832414457675313 904.46992296947997 -43.333333333333393 
	80.439540032585541 914.96762386938758 -43.333333333333414 
	77.020278048875198 922.4811384852793 -43.333333333333385 
	74.063662507837947 928.42564299882042 -43.333333333333442 
	70.415243855235232 935.26042751546129 -43.333333333333336 
	66.630241881852371 941.68796636642674 -43.333333333333414 
	61.339917773652928 949.54073219899738 -43.333333333333321 
	55.793946670151449 956.65410527995664 -43.333333333333421 
	49.183201743931946 963.6210937265995 -43.333333333333307 
	42.17230193524842 969.52523268141215 -43.333333333333421 
	34.731534579116477 974.34877571626419 -43.333333333333265 
	26.830987732763322 978.08372765306717 -43.333333333333428 
	18.441738684833503 980.73158434862944 -43.333333333333286 
	9.5369150641658695 982.30303706426128 -43.333333333333407 
	3.2410096492329954 982.64610300031791 -43.3333333333333 
	-9.7078472806795436e-015 982.64608580185472 -43.333333333333329 
	125.00000000000011 753.36614164894763 -1.1162399545394651e-013 
	125.00000000000013 757.4409113168266 -1.1162399545394653e-013 
	124.88561155872632 765.70202095850016 -1.115218474951567e-013 
	124.37687010175416 778.34709476793137 -1.1106754546251432e-013 
	123.53646150078686 791.16719494819426 -1.1031706733568369e-013 
	122.23964993123315 805.52257316347107 -1.0915902502572776e-013 
	120.35365804345102 821.35215529155687 -1.0747484942646402e-013 
	117.73242392155974 838.50544174882384 -1.0513410842081822e-013 
	115.34921271701162 851.16839639737407 -1.0300591996752004e-013 
	113.5883351626963 859.48099548117295 -1.0143347046257723e-013 
	112.36861821193872 864.98540396793521 -1.0034427302764551e-013 
	110.11412758171335 874.51268339947922 -9.8331031012771576e-014 
	106.55186385344784 887.77972641596557 -9.5149958131094229e-014 
	101.73309213663137 903.02493887818957 -9.0846833713402025e-014 
	96.371106477782746 917.47813509839614 -8.6058623610942469e-014 
	90.465015361163353 931.0323604985 -8.0784531707325538e-014 
	85.087802545794077 941.49668067165726 -7.5982723876464064e-014 
	80.510643430798012 949.32555418962681 -7.1895357570509607e-014 
	76.939379468733122 954.91588606532878 -6.8706247552378574e-014 
	73.84736179556549 959.33199483230737 -6.5945100618833105e-014 
	70.031898033487295 964.40639766894424 -6.2537922141769803e-014 
	66.07591929469983 969.17649394731018 -5.9005264919735226e-014 
	60.564429896859266 975.00951732929263 -5.4083549179823002e-014 
	54.81409650673762 980.30339755728198 -4.8948547674242078e-014 
	48.018096673134174 985.50905815925728 -4.2879774437992708e-014 
	40.890237922271766 989.9457634093618 -3.6514653855571611e-014 
	33.425016359642441 993.59745880654566 -2.9848270993414503e-014 
	25.616405497619567 996.45105217954301 -2.2875244246501877e-014 
	17.457855381528482 998.49641864075875 -1.5589724557947115e-014 
	8.94229278490306 999.72639947945322 -7.9853955933590218e-015 
	3.0221786249205662 999.99999999999977 -2.6987812247131779e-015 
	2.6645352591003757e-014 999.99999999999977 -2.3794085731896012e-029 
	0 
	0 
	0 
	28 0.035714285714285712 0.071428571428571425 0.10714285714285714 0.14285714285714285 0.19047619047619047 0.23809523809523808 0.2857142857142857 0.29761904761904762 0.30952380952380953 0.33333333333333331 0.38095238095238093 0.42857142857142855 0.47619047619047616 0.52380952380952372 0.5714285714285714 0.59523809523809512 0.61904761904761896 0.64285714285714279 0.65476190476190466 0.69047619047619047 0.71428571428571419 0.74999999999999989 0.78571428571428559 0.8214285714285714 0.8571428571428571 0.89285714285714279 0.9285714285714286 0.9642857142857143 
	0 
	0 
	0 
	F 1 F 0 F 1 F 0 } I I I I #
coedge $-1 $294 $198 $295 $296 reversed $154 $297 #
coedge $-1 $198 $294 $298 $299 forward $154 $300 #
coedge $-1 $301 $302 $198 $243 reversed $272 $-1 #
edge $-1 $303 -16.842450950825167 $304 -0 $198 $305 forward 7 unknown #
pcurve $-1 1 $305 0 0 #
face $-1 $306 $256 $2 $-1 $307 forward single #
plane-surface $-1 -113.25846078273825 710.81381425173277 0 0 0.99862953475457394 0.052335956242943314 -10 -0 -0 forward_v I I I I #
coedge $-1 $201 $308 $225 $277 forward $157 $-1 #
straight-curve $-1 85.000000000000028 659.63028046653505 0 2.2204460492503135e-015 -10 0 F -17.467331518218174 F -5.118353378519771 #
tcoedge-coedge $-1 $309 $205 $310 $311 forward $157 $312 -1 -0 #
coedge $-1 $210 $313 $205 $251 reversed $196 $-1 #
edge $-1 $212 -11.138134445115497 $314 0 $250 $315 forward 7 unknown #
coedge $-1 $316 $317 $206 $253 reversed $157 $-1 #
edge $-1 $257 8.4247845398173986 $268 9.5989384615435824 $252 $318 forward 7 unknown #
coedge $-1 $319 $207 $219 $274 forward $256 $-1 #
coedge $-1 $207 $319 $320 $321 reversed $256 $-1 #
loop $-1 $-1 $319 $245 #
vertex $-1 $253 $322 #
straight-curve $-1 -29.010615384564275 641.98479719779334 0 -10 -4.736863745343909e-015 0 F 3.1022557817214969 F 8.4247845398173986 #
coedge $-1 $323 $301 $209 $260 reversed $272 $-1 #
edge $-1 $269 -12.50000000000002 $262 12.50000000000002 $259 $324 forward 7 unknown #
coedge $-1 $298 $210 $301 $325 forward $196 $-1 #
vertex $-1 $211 $326 #
straight-curve $-1 125.00000000000026 484.34740279400609 -157.63739440378737 7.7770338445678503e-015 -7.0710678118654737 -7.0710678118654773 F -22.293294110299257 F -13.100905954874147 #
point $-1 125.00000000000011 641.98479719779334 -5.2413198637147567e-014 #
coedge $-1 $327 $214 $317 $328 forward $267 $-1 #
coedge $-1 $214 $329 $323 $330 reversed $267 $-1 #
loop $-1 $-1 $214 $331 #
vertex $-1 $328 $332 #
vertex $-1 $215 $333 #
straight-curve $-1 -125.0000000000004 484.34740279400609 -157.63739440378725 -1.40914405748576e-014 -7.0710678118654737 -7.0710678118654773 F -22.293294110299257 F -13.100905954874147 #
face $-1 $334 $335 $2 $-1 $336 reversed single #
loop $-1 $-1 $323 $216 #
plane-surface $-1 -2.9022238818026046e-014 576.98479719779334 -64.999999999999972 4.736863745343911e-016 -6.1573783157801519e-017 1 10 0 -4.7368637453439113e-015 forward_v I I I I #
edge $-1 $171 -0.17986545923504149 $290 12.855791120367321 $254 $337 forward 7 unknown #
coedge $-1 $222 $221 $308 $338 reversed $223 $-1 #
face $-1 $97 $223 $2 $-1 $339 forward single #
edge $-1 $278 -5.5989384615435762 $228 11.401061538456425 $247 $340 forward 7 unknown #
vertex $-1 $338 $341 #
straight-curve $-1 -85 834.30359564871674 0 0 0 10 F 0 F 8 #
point $-1 85 834.30359564871674 0 #
coedge $-1 $232 $230 $342 $343 forward $189 $-1 #
coedge $-1 $308 $316 $230 $283 forward $157 $-1 #
edge $-1 $344 -2.7618615006804887 $284 0.063984577593332759 $282 $345 forward 7 unknown #
vertex $-1 $338 $346 #
straight-curve $-1 -85.000000000000014 710.98293673759315 -3.2270492696712689 -1.1620916727338077e-016 -0.52335956242943316 9.9862953475457399 F 0.32314778978215936 F 8.3341265577655275 #
coedge $-1 $347 $234 $232 $287 reversed $289 $-1 #
edge $-1 $348 -4.6412276274163649 $236 -0.68130113067953513 $232 $349 forward 7 unknown #
coedge $-1 $234 $347 $319 $350 reversed $289 $-1 #
loop $-1 $-1 $288 $351 #
vertex $-1 $274 $352 #
straight-curve $-1 -66.846184508574595 641.98479719779334 130 -0 -10 -0 F -6.2016005747144192 F -0.6813011306795147 #
point $-1 -66.846184508574595 704.0008029449375 130 #
tcoedge-coedge $-1 $353 $354 $355 $356 forward $238 $357 0 1 #
coedge $-1 $241 $240 $358 $359 forward $154 $360 #
coedge $-1 $361 $362 $240 $296 forward $335 $-1 #
edge $-1 $363 0 $304 0.50000000000000056 $240 $364 forward 7 unknown #
pcurve $-1 0 forward { exppc nubs 1 open 2 
	-0.50000000000000056 1 -0 1 
	0 0.50000000000000056 
	1.5946977152348476e-017 2.5452993127593368e-018 
	2.8394018675835618e-014 
	spline reversed { ref 0 } I I I I 
	} 0 0 #
coedge $-1 $365 $261 $241 $299 reversed $196 $-1 #
edge $-1 $366 0 $303 7.2792434794912975 $298 $367 forward 7 tangent #
pcurve $-1 0 forward { exppc nubs 1 open 2 
	0 1 7.2792434794912975 1 
	1 0 
	0.99999999999999933 0.50000000000000067 
	8.6970430857036264e-014 
	spline reversed { ref 0 } I I I I 
	} 0 0 #
coedge $-1 $259 $242 $261 $325 reversed $272 $-1 #
coedge $-1 $242 $368 $361 $369 forward $272 $-1 #
vertex $-1 $243 $370 #
vertex $-1 $243 $371 #
intcurve-curve $-1 forward { parcur full nubs 3 open 2 
	-16.842450950825167 3 0 3 
	125 174.20316982936606 -65.000000000000043 
	124.99999999999999 112.2895510804691 -65.000000000000043 
	119.334793847227 46.078873112727265 -65.000000000000043 
	110.94465495106887 -1.4153001609322409e-014 -65.000000000000028 
	0 
	spline reversed { ref 0 } I I I I 
	null_surface 
	nubs 1 open 2 
	-16.842450950825167 1 0 1 
	1 0.50000000000000056 
	0 0.50000000000000056 
	
	nullbs 
	I I 
	0 
	0 
	0 
	surf1 } I I #
face $-1 $351 $372 $2 $-1 $373 forward single #
plane-surface $-1 -60.033173201779242 641.98479719779334 0 0 -0.99862953475457394 0.052335956242943314 10 0 0 forward_v I I I I #
coedge $-1 $247 $282 $275 $338 forward $157 $-1 #
tcoedge-coedge $-1 $317 $249 $374 $375 reversed $157 $376 0 1 #
tcoedge-coedge $-1 $354 $353 $249 $311 reversed $238 $377 0 1 #
tedge-edge $-1 $314 -1 $378 -0 $310 $379 forward 7 unknown 7.2410261552554828e-006 #
pcurve $-1 0 forward { exppc nubs 4 open 2 
	-1 4 -0 4 
	18.30212307691286 26.84091763645943 
	18.302123076912878 35.397933939005206 
	16.0598288451042 46.14331986078448 
	12.148698189245987 51.504303471564647 
	5.8021230769128511 51.504303471564647 
	0 
	plane -58.021230769128479 484.95696528435337 0 0 0 1 10 0 0 forward_v I I I I 
	} 0 0 #
coedge $-1 $250 $365 $354 $380 forward $196 $-1 #
tvertex-vertex $-1 $311 $381 1.0682712888502937e-011 #
straight-curve $-1 125.00000000000014 753.36614164894831 -1.1162399545394654e-013 3.7726289859795539e-015 10 -3.3689273662432655e-030 F -11.138134445115497 F -0 #
coedge $-1 $282 $252 $382 $383 forward $157 $-1 #
coedge $-1 $252 $309 $265 $328 reversed $157 $-1 #
straight-curve $-1 -29.010615384564275 641.98479719779334 0 -10 -4.736863745343909e-015 0 F 8.4247845398173986 F 9.5989384615435824 #
coedge $-1 $255 $254 $288 $350 forward $256 $-1 #
coedge $-1 $384 $382 $255 $321 forward $372 $-1 #
edge $-1 $257 -0.13908945969930214 $385 12.896567119903063 $320 $386 forward 7 unknown #
point $-1 -113.25846078273825 641.98479719779334 0 #
coedge $-1 $368 $259 $266 $330 forward $272 $-1 #
straight-curve $-1 -2.9022238818026046e-014 576.98479719779334 -64.999999999999972 10 7.257602378440451e-032 -4.193055890971802e-015 F -12.50000000000002 F 12.50000000000002 #
edge $-1 $262 -21.777478880757471 $303 18.500683856085267 $261 $387 forward 7 unknown #
point $-1 125.00000000000017 576.98479719779334 -65.000000000000014 #
coedge $-1 $388 $265 $389 $390 reversed $267 $-1 #
edge $-1 $268 -11.138134445115497 $391 0 $265 $392 forward 7 unknown #
coedge $-1 $266 $388 $393 $394 forward $267 $-1 #
edge $-1 $269 -21.777478880757471 $395 18.500683856085267 $266 $396 forward 7 unknown #
face $-1 $397 $267 $2 $-1 $398 reversed single #
point $-1 -125.00000000000011 641.98479719779334 5.9210796816798941e-014 #
point $-1 -125.00000000000023 576.98479719779334 -64.999999999999901 #
face $-1 $399 $400 $2 $-1 $401 reversed single #
loop $-1 $-1 $361 $271 #
plane-surface $-1 0 0 -130 -1.8369701987210302e-016 1 -5.8282076269978263e-018 0 5.8282076269978263e-017 10 forward_v I I I I #
straight-curve $-1 -60.127178854658112 642.07880285067199 1.7937347120008833 -0.52264427688713955 0.522644276887134 9.972646886342373 F -0.17986545923504149 F 12.855791120367321 #
edge $-1 $284 5.118353378519771 $278 17.467331518218174 $308 $402 forward 7 unknown #
plane-surface $-1 -85 834.30359564871674 0 -1 2.2204460492503136e-016 0 0 0 -10 reverse_v I I I I #
straight-curve $-1 -29.01061538456424 834.30359564871674 0 10 0 0 F -5.5989384615435762 F 11.401061538456425 #
point $-1 -85 834.30359564871674 0 #
coedge $-1 $382 $384 $281 $343 reversed $372 $-1 #
edge $-1 $344 -0.17986545923504149 $348 12.855791120367321 $281 $403 forward 7 unknown #
vertex $-1 $383 $404 #
straight-curve $-1 -85.639845775933367 710.81381425173277 -1.1102230246251565e-015 10 0 0 F -2.7618615006804887 F 0.063984577593332759 #
point $-1 -85.000000000000028 710.81381425173277 0 #
coedge $-1 $288 $286 $384 $405 reversed $289 $-1 #
vertex $-1 $343 $406 #
straight-curve $-1 -60.033173201779242 704.0008029449375 130 10 0 0 F -4.6412276274163649 F -0.68130113067953513 #
edge $-1 $290 -4.6412276274163649 $385 -0.68130113067953602 $319 $407 forward 7 unknown #
face $-1 $276 $289 $2 $-1 $408 forward single #
point $-1 -66.846184508574595 648.79780850458837 130 #
coedge $-1 $310 $293 $409 $410 forward $238 $411 #
coedge $-1 $293 $310 $313 $380 reversed $238 $412 #
tcoedge-coedge $-1 $413 $414 $293 $356 reversed $400 $415 -1 -0 #
tedge-edge $-1 $416 0 $417 1 $293 $418 forward 7 unknown 5.3160203077162243e-005 #
pcurve $-1 0 forward { exppc nubs 3 open 2 
	0 3 1 3 
	0 0 
	0.47735171922868025 0 
	0.66666666666666674 0 
	1 0 
	1.4531073070645515e-013 
	spline reversed { ref 1 } I I I I 
	} 0 0 #
coedge $-1 $419 $413 $294 $359 reversed $400 $-1 #
edge $-1 $363 0 $366 1 $294 $420 forward 7 unknown #
pcurve $-1 0 forward { exppc nubs 1 open 2 
	0 1 1 1 
	0 0 
	1 1.8729788496393858e-017 
	2.6309907211826785e-015 
	spline reversed { ref 0 } I I I I 
	} 0 0 #
coedge $-1 $421 $295 $302 $369 reversed $335 $-1 #
coedge $-1 $295 $421 $419 $422 reversed $335 $-1 #
vertex $-1 $359 $423 #
straight-curve $-1 96.889309902137839 -2.8306003218644849e-014 -130.00000000000009 28.110690097862015 2.8306003218644849e-014 129.99999999999997 F 0 F 0.50000000000000056 #
coedge $-1 $313 $298 $413 $424 forward $196 $-1 #
vertex $-1 $424 $425 #
straight-curve $-1 125.00000000000009 141.43521958264398 -130.00000000000011 -1.1548462385248132e-014 4.5015598583895615 8.9294993611812163 F 0 F 7.2792434794912975 #
coedge $-1 $302 $323 $426 $427 forward $272 $-1 #
edge $-1 $428 -11.094465495106897 $304 11.09446549510688 $361 $429 forward 7 unknown #
point $-1 125.00000000000001 174.20316982936598 -65.000000000000043 #
point $-1 110.94465495106887 -1.415300160932241e-014 -65.000000000000043 #
loop $-1 $-1 $384 $306 #
plane-surface $-1 -113.25846078273825 641.98479719779334 0 -0.99862953475457394 0 0.052335956242943862 -0 -10 -0 forward_v I I I I #
tcoedge-coedge $-1 $409 $389 $309 $375 forward $430 $431 -1 -0 #
tedge-edge $-1 $391 -1 $378 -0 $374 $432 forward 7 unknown 7.2410266115785378e-006 #
pcurve $-1 0 forward { exppc nubs 4 open 2 
	0 4 1 4 
	5.8021230769128458 51.504303471564647 
	-0.54445203542029041 51.504303471564647 
	-4.4555826912785035 46.14331986078448 
	-6.69787692308718 35.397933939005206 
	-6.697876923087164 26.84091763645943 
	0 
	plane -58.021230769128479 484.95696528435337 0 0 0 1 10 0 0 forward_v I I I I 
	} 0 0 #
pcurve $-1 0 forward { exppc nubs 1 open 2 
	0 1 1 1 
	1 1 
	0 1 
	1.745603412957751e-013 
	spline reversed { ref 1 } I I I I 
	} 0 0 #
tvertex-vertex $-1 $375 $433 1.0230687140227212e-011 #
intcurve-curve $-1 reversed { exactcur full nubs 4 open 2 
	0 4 1 4 
	2.6645352591003757e-014 999.99999999999977 -2.3794085731896012e-029 
	63.465751123331387 999.99999999999977 -5.6674405718976294e-014 
	102.57705768191352 946.39016389219819 -9.1600488162920902e-014 
	125.00000000000027 838.93630467440539 -1.1162399545394665e-013 
	125.00000000000011 753.36614164894763 -1.1162399545394651e-013 
	0 
	null_surface 
	null_surface 
	nullbs 
	nullbs 
	I I 
	0 
	0 
	0 
	F 1 F 0 } F -1 F -0 #
edge $-1 $416 0 $314 1 $354 $434 forward 7 tangent #
point $-1 125.00000000000011 753.36614164894763 -1.1162399545394651e-013 #
coedge $-1 $320 $342 $316 $383 reversed $372 $-1 #
edge $-1 $257 7.8513915956719984 $344 14.734293301065946 $316 $435 forward 7 unknown #
coedge $-1 $342 $320 $347 $405 forward $372 $-1 #
vertex $-1 $321 $436 #
straight-curve $-1 -113.1857664726511 642.05749150788051 1.3870900671932853 0.52264427688713955 0.522644276887134 9.972646886342373 F -0.13908945969930214 F 12.896567119903063 #
straight-curve $-1 125.00000000000009 359.21000839021866 -65.000000000000028 -3.9012584725683718e-015 -10 -6.1573783157801361e-016 F -21.777478880757471 F 18.500683856085267 #
coedge $-1 $329 $327 $437 $438 reversed $267 $-1 #
coedge $-1 $374 $439 $327 $390 forward $430 $440 #
edge $-1 $441 0 $391 1 $389 $442 forward 7 tangent #
tvertex-vertex $-1 $375 $443 1.0682712888502937e-011 #
straight-curve $-1 -125.00000000000014 753.36614164894831 0 -3.7726289859795539e-015 10 0 F -11.138134445115497 F -0 #
coedge $-1 $444 $426 $329 $394 reversed $445 $446 #
edge $-1 $447 0 $395 7.2792434794912975 $329 $448 forward 7 tangent #
vertex $-1 $427 $449 #
straight-curve $-1 -125.00000000000014 359.21000839021866 -64.999999999999915 3.9012584725683711e-015 -10 -6.1573783157801706e-016 F -21.777478880757471 F 18.500683856085267 #
face $-1 $-1 $430 $2 $-1 $450 reversed single #
plane-surface $-1 -125.00000000000021 141.43521958264398 -130 1 3.9012584725683727e-016 -2.3829564846906508e-015 -2.3829564846906509e-014 0 -10 forward_v I I I I #
face $-1 $331 $445 $2 $-1 $451 reversed single #
loop $-1 $-1 $419 $334 #
plane-surface $-1 -52.108864244314447 466.0319277299609 -130 -1.0830414237953302e-017 4.5599023389334374e-020 1 10 0 1.0830414237953302e-016 forward_v I I I I #
straight-curve $-1 -85.000000000000028 659.63028046653505 0 2.2204460492503135e-015 10 0 F 5.118353378519771 F 17.467331518218174 #
straight-curve $-1 -113.16445512985938 710.719808598854 1.7937347120008833 0.52264427688713955 -0.522644276887134 9.972646886342373 F -0.17986545923504149 F 12.855791120367321 #
point $-1 -113.25846078273825 710.81381425173277 0 #
edge $-1 $385 -6.2016005747144192 $348 -0.6813011306795147 $384 $452 forward 7 unknown #
point $-1 -106.44544947594289 704.00080294493762 130 #
straight-curve $-1 -113.25846078273825 648.7978085045886 130 -10 -0 -0 F -4.6412276274163649 F -0.68130113067953602 #
plane-surface $-1 -86.645816992258759 676.39930572476317 130 0 0 1 10 0 0 forward_v I I I I #
coedge $-1 $439 $374 $353 $410 reversed $430 $453 #
edge $-1 $417 0 $378 14.003722734319352 $409 $454 forward 7 tangent #
pcurve $-1 0 forward { exppc nubs 1 open 2 
	-8.8817841970012523e-016 1 14.003722734319354 1 
	1 0 
	1 1 
	5.3888434650661956e-014 
	spline reversed { ref 1 } I I I I 
	} 0 0 #
pcurve $-1 0 forward { exppc nubs 1 open 2 
	-1 1 -0 1 
	0 1 
	2.1003763033393561e-016 0 
	7.4705890151882924e-014 
	spline reversed { ref 1 } I I I I 
	} 0 0 #
coedge $-1 $358 $355 $365 $424 reversed $400 $-1 #
tcoedge-coedge $-1 $355 $437 $439 $455 forward $400 $456 0 1 #
pcurve $-1 0 forward { exppc nubs 4 open 2 
	-1 4 -0 4 
	5.210886424431437 48.190632967560376 
	12.935941410795955 48.190632967560333 
	13.048033302868843 38.753983523157146 
	17.710886424431465 19.789688518224921 
	17.710886424431457 6.0151662892523063 
	0 
	plane -52.108864244314447 466.0319277299609 -130 1.0830414237953302e-017 -4.5599023389334374e-020 -1 10 0 1.0830414237953302e-016 reverse_v I I I I 
	} 0 0 #
tvertex-vertex $-1 $356 $457 1.0454969341307734e-011 #
tvertex-vertex $-1 $356 $458 1.0229295217308887e-011 #
intcurve-curve $-1 forward { exactcur full nubs 4 open 2 
	0 4 1 4 
	125.00000000000014 526.18359062248396 -130.00000000000011 
	125.00000000000021 663.92881291221011 -130.00000000000011 
	78.371468784373974 853.57176296153239 -130.00000000000006 
	77.250549863645105 947.93825740556429 -130.00000000000006 
	-8.2414247024046145e-014 947.93825740556463 -130 
	0 
	null_surface 
	null_surface 
	nullbs 
	nullbs 
	I I 
	0 
	0 
	0 
	F 1 F 0 } F 0 F 1 #
coedge $-1 $459 $358 $362 $422 forward $400 $-1 #
intcurve-curve $-1 forward { exactcur full nubs 3 open 2 
	0 3 1 3 
	96.889309902137839 -2.8306003218644849e-014 -130.00000000000009 
	113.66958769445411 23.167372866758562 -130.00000000000011 
	125.00000000000007 86.598355443546055 -130.00000000000011 
	125.00000000000009 141.43521958264398 -130.00000000000011 
	0 
	null_surface 
	null_surface 
	nullbs 
	nullbs 
	I I 
	0 
	0 
	0 
	F 1 F 0 } F 0 F 1 #
coedge $-1 $362 $361 $460 $461 reversed $335 $-1 #
edge $-1 $363 -9.6889309902137928 $462 9.6889309902137928 $362 $463 forward 7 unknown #
point $-1 96.889309902137839 -2.8306003218644849e-014 -130.00000000000009 #
edge $-1 $366 0 $416 38.474837103983958 $365 $464 forward 7 unknown #
point $-1 125.00000000000009 141.43521958264398 -130.00000000000011 #
coedge $-1 $393 $460 $368 $427 reversed $445 $465 #
edge $-1 $395 -16.842450950825167 $428 -0 $426 $466 forward 7 unknown #
vertex $-1 $427 $467 #
straight-curve $-1 5.3878881641726866e-014 0 -65 10 1.8369701987210304e-015 -4.7368637453439113e-015 F -11.094465495106897 F 11.09446549510688 #
loop $-1 $-1 $439 $397 #
pcurve $-1 0 reversed { exppc nubs 1 open 2 
	0 1 1 1 
	1 1 
	0 1 
	1.745603412957751e-013 
	spline forward { exactsur full nubs 3 3 open open none none 30 2 
	0 3 0.035714285714285712 1 0.071428571428571425 1 0.10714285714285714 1 0.14285714285714285 1 
	0.19047619047619047 1 0.23809523809523808 1 0.2857142857142857 1 0.29761904761904762 1 0.30952380952380953 1 
	0.33333333333333331 1 0.38095238095238093 1 0.42857142857142855 1 0.47619047619047616 1 0.52380952380952372 1 
	0.5714285714285714 1 0.59523809523809512 1 0.61904761904761896 1 0.64285714285714279 1 0.65476190476190466 1 
	0.69047619047619047 1 0.71428571428571419 1 0.74999999999999989 1 0.78571428571428559 1 0.8214285714285714 1 
	0.8571428571428571 1 0.89285714285714279 1 0.9285714285714286 1 0.9642857142857143 1 1 3 
	0 3 1 3 
	-125.00000000000027 526.18359062248396 -130 
	-125.00000000000027 530.76392837295828 -130 
	-124.88368012359153 540.33697174745987 -130 
	-124.33582747688267 555.89514733968531 -130.00000000000006 
	-123.40143422056056 572.5932429096614 -130.00000000000003 
	-121.93161437146006 592.32398306352786 -130 
	-119.77123300260001 615.39772366887496 -130.00000000000003 
	-116.77831434837884 641.98673511204152 -130 
	-114.10294277640516 662.73193666183806 -129.99999999999997 
	-112.16240996839878 676.7747156539898 -130 
	-110.82845218236852 686.18437807164548 -129.99999999999997 
	-108.39220238344889 702.75395852708448 -130 
	-104.64415473515913 726.58441869103137 -129.99999999999994 
	-99.782725933236506 754.99164622967237 -129.99999999999989 
	-94.605593221552112 782.75750334747681 -129.99999999999991 
	-89.133964106908522 809.43858095369012 -129.99999999999983 
	-84.321682362372442 830.4163717630023 -129.99999999999977 
	-80.29728124461306 846.25181144723354 -129.99999999999972 
	-77.182095437383026 857.61161099848368 -129.99999999999974 
	-74.496235637985649 866.61296903394486 -129.99999999999972 
	-71.181949273260415 876.96844732799786 -129.99999999999969 
	-67.738851813877815 886.710959842791 -129.99999999999969 
	-62.890888843148353 898.60314957424248 -129.99999999999972 
	-57.753632521240299 909.35551205230865 -129.99999999999977 
	-51.513386482123373 919.84522554982084 -129.9999999999998 
	-44.736418052318911 928.68418066974334 -129.99999999999983 
	-37.344547823105877 935.8514283897664 -129.99999999999989 
	-29.260143680793554 941.34908604969519 -129.99999999999989 
	-20.409470219738491 945.20190482000055 -129.99999999999994 
	-10.726171821067121 947.45632376734056 -129.99999999999997 
	-3.678597612554567 947.93825740556463 -130 
	-3.3674708248058108e-014 947.93825740556463 -130 
	-125.00000000000021 601.91110763130519 -86.666666666666671 
	-124.99998135675565 606.32296018448289 -86.666666666666714 
	-124.88433238686767 615.45863366026356 -86.666666666666615 
	-124.34950528246024 630.04579787809837 -86.666666666666799 
	-123.44645224993239 645.45119923117215 -86.666666666666629 
	-122.0343094295708 663.39013045135414 -86.666666666666714 
	-119.96536130361116 684.04922157610974 -86.666666666666657 
	-117.09633344700359 707.49301748838786 -86.666666666666714 
	-114.51835019895513 725.54414566275091 -86.666666666666544 
	-112.63771008345763 737.67681148508416 -86.666666666666742 
	-111.34182899471362 745.78472998402367 -86.666666666666529 
	-108.96616428564231 760.00687747833683 -86.666666666666842 
	-105.28007612649466 780.31622259578205 -86.666666666666487 
	-100.43282234506106 804.33608370826698 -86.666666666666629 
	-95.19413110392 827.66437832052975 -86.666666666666572 
	-89.577626974176226 849.96984962827014 -86.666666666666515 
	-84.577070450491163 867.4431294651796 -86.66666666666643 
	-80.368384642825475 880.60974176747277 -86.666666666666387 
	-77.101196857240907 890.04635857853316 -86.666666666666416 
	-74.27993492571315 897.51932086743182 -86.666666666666373 
	-70.798603451512449 906.11441748148081 -86.666666666666373 
	-67.184529226725232 914.19948742367433 -86.666666666666345 
	-62.115400966354649 924.07193470453774 -86.666666666666444 
	-56.773782357826427 933.004804329634 -86.666666666666373 
	-50.348281411325551 941.73318998247862 -86.666666666666544 
	-43.454354039342221 949.10471139769299 -86.666666666666458 
	-36.038029603631792 955.10011148004787 -86.6666666666666 
	-28.045561445649763 959.71641057617103 -86.666666666666558 
	-19.425586916433428 962.96673911212986 -86.666666666666615 
	-10.131549541804272 964.87968618253251 -86.666666666666643 
	-3.4597665882420992 965.29215440524649 -86.666666666666657 
	-3.1331589695706658e-014 965.29217160370968 -86.666666666666671 
	-125.00000000000017 677.63862464012641 -43.333333333333329 
	-125.00001864324474 681.88187950530198 -43.333333333333293 
	-124.88495929545022 690.58035904569635 -43.333333333333385 
	-124.36319229617659 704.19644422951808 -43.333333333333265 
	-123.49144347141502 718.30923862668317 -43.3333333333334 
	-122.13695487312233 734.45642577564365 -43.333333333333286 
	-120.1595297424398 752.70065738432061 -43.333333333333378 
	-117.4144048229348 772.99915937247556 -43.333333333333293 
	-114.93380529446134 788.35618739645815 -43.333333333333428 
	-113.11303504763711 798.57889965007553 -43.333333333333265 
	-111.85524139959327 805.38505205555373 -43.333333333333442 
	-109.54016567951972 817.25976444822436 -43.333333333333158 
	-105.91594246211208 834.04792251121262 -43.333333333333456 
	-101.08299572480665 853.68050139959291 -43.333333333333258 
	-95.782568595414688 872.5712601253415 -43.333333333333343 
	-90.021352493895492 890.50109182391805 -43.333333333333314 
	-84.832414457675227 904.46992296947838 -43.33333333333335 
	-80.439540032585484 914.96762386938587 -43.333333333333329 
	-77.020278048875113 922.48113848527748 -43.333333333333329 
	-74.063662507837861 928.4256429988186 -43.33333333333335 
	-70.415243855235147 935.26042751545947 -43.333333333333314 
	-66.630241881852285 941.68796636642469 -43.33333333333335 
	-61.33991777365285 949.54073219899567 -43.333333333333272 
	-55.793946670151385 956.65410527995505 -43.3333333333334 
	-49.183201743931896 963.62109372659802 -43.333333333333265 
	-42.172301935248377 969.5252326814109 -43.333333333333371 
	-34.73153457911647 974.3487757162635 -43.333333333333293 
	-26.830987732763319 978.0837276530666 -43.333333333333329 
	-18.441738684833524 980.7315843486291 -43.333333333333329 
	-9.536915064165898 982.30303706426082 -43.333333333333329 
	-3.241009649233034 982.64610300031791 -43.333333333333343 
	-2.8988471143355207e-014 982.64608580185472 -43.333333333333329 
	-125.00000000000011 753.36614164894763 0 
	-125.00000000000013 757.4409113168266 0 
	-124.88561155872635 765.70202095850004 0 
	-124.37687010175416 778.34709476793114 0 
	-123.53646150078686 791.16719494819392 0 
	-122.23964993123307 805.52257316346993 0 
	-120.35365804345095 821.35215529155539 0 
	-117.73242392155954 838.50544174882191 0 
	-115.34921271701131 851.168396397371 0 
	-113.58833516269597 859.48099548116988 0 
	-112.36861821193837 864.98540396793192 0 
	-110.11412758171313 874.51268339947671 0 
	-106.55186385344761 887.7797264159633 0 
	-101.7330921366312 903.02493887818753 0 
	-96.371106477782575 917.47813509839443 0 
	-90.465015361163196 931.03236049849806 0 
	-85.087802545793949 941.49668067165567 0 
	-80.510643430797899 949.32555418962511 0 
	-76.939379468732994 954.91588606532696 0 
	-73.847361795565362 959.33199483230555 0 
	-70.031898033487181 964.40639766894242 0 
	-66.075919294699702 969.17649394730813 0 
	-60.564429896859146 975.00951732929093 0 
	-54.814096506737513 980.30339755728028 0 
	-48.018096673134075 985.5090581592558 0 
	-40.890237922271687 989.94576340936055 0 
	-33.425016359642385 993.59745880654498 0 
	-25.616405497619528 996.45105217954244 0 
	-17.457855381528461 998.49641864075841 0 
	-8.9422927849030494 999.72639947945277 0 
	-3.0221786249205662 999.99999999999977 0 
	-2.6645352591003757e-014 999.99999999999977 0 
	0 
	0 
	0 
	28 0.035714285714285712 0.071428571428571425 0.10714285714285714 0.14285714285714285 0.19047619047619047 0.23809523809523808 0.2857142857142857 0.29761904761904762 0.30952380952380953 0.33333333333333331 0.38095238095238093 0.42857142857142855 0.47619047619047616 0.52380952380952372 0.5714285714285714 0.59523809523809512 0.61904761904761896 0.64285714285714279 0.65476190476190466 0.69047619047619047 0.71428571428571419 0.74999999999999989 0.78571428571428559 0.8214285714285714 0.8571428571428571 0.89285714285714279 0.9285714285714286 0.9642857142857143 
	0 
	0 
	0 
	F 1 F 0 F 1 F 0 } I I I I 
	} 0 0 #
intcurve-curve $-1 reversed { exactcur full nubs 4 open 2 
	0 4 1 4 
	-2.6645352591003757e-014 999.99999999999977 0 
	-63.465751123331387 999.99999999999977 0 
	-102.57705768191352 946.39016389219819 0 
	-125.00000000000027 838.93630467440539 0 
	-125.00000000000011 753.36614164894763 0 
	0 
	null_surface 
	null_surface 
	nullbs 
	nullbs 
	I I 
	0 
	0 
	0 
	F 1 F 0 } F -1 F -0 #
point $-1 0 1000 0 #
straight-curve $-1 125.00000000000014 526.18359062248396 -130.00000000000011 -4.3783160273918283e-014 227.18255102646373 130 F 0 F 1 #
straight-curve $-1 -113.25846078273825 563.47088124107336 0 0 10 0 F 7.8513915956719984 F 14.734293301065946 #
point $-1 -106.44544947594289 648.7978085045886 130 #
coedge $-1 $414 $459 $388 $438 forward $400 $-1 #
edge $-1 $447 0 $441 38.474837103983958 $388 $468 forward 7 unknown #
tcoedge-coedge $-1 $389 $409 $414 $455 reversed $430 $469 -1 -0 #
pcurve $-1 0 reversed { exppc nubs 1 open 2 
	-1 1 -0 1 
	0 1 
	2.1003763033393561e-016 0 
	7.4705890151882924e-014 
	spline forward { ref 17 } I I I I 
	} 0 0 #
tvertex-vertex $-1 $455 $470 1.0454969341307734e-011 #
straight-curve $-1 -125.00000000000027 526.18359062248396 -130 1.5987211554602254e-013 227.18255102646373 130 F 0 F 1 #
point $-1 -125.00000000000011 753.36614164894763 0 #
coedge $-1 $460 $393 $459 $471 reversed $445 $472 #
loop $-1 $-1 $426 $399 #
pcurve $-1 0 forward { exppc nubs 1 open 2 
	-7.2792434794912975 1 -0 1 
	0.99999999999999956 0.50000000000000067 
	1 0 
	1.1686300500833398e-013 
	spline forward { exactsur full nubs 3 3 open open none none 2 2 
	0 3 1 3 
	0 3 0.50000000000000067 3 
	-96.889309902137967 -2.8306003218644849e-014 -130 
	-113.66958769445424 23.167372866758559 -130 
	-125.0000000000002 86.598355443546069 -130 
	-125.00000000000021 141.43521958264398 -130 
	-101.57442491844829 -2.3588336015537367e-014 -108.33333333333331 
	-115.55798974537851 30.804539615414836 -108.33333333333331 
	-125.00000000000016 95.162087322520378 -108.3333333333333 
	-125.00000000000017 152.35786966488467 -108.33333333333331 
	-106.25953993475862 -1.8870668812429885e-014 -86.6666666666666 
	-117.44639179630281 38.441706364071003 -86.6666666666666 
	-125.0000000000001 103.72581920149479 -86.666666666666615 
	-125.00000000000011 163.28051974712537 -86.6666666666666 
	-110.94465495106894 -1.4153001609322405e-014 -64.999999999999915 
	-119.33479384722708 46.07887311272728 -64.999999999999915 
	-125.00000000000006 112.2895510804691 -64.999999999999915 
	-125.00000000000007 174.20316982936606 -64.999999999999915 
	0 
	0 
	0 
	0 
	0 
	0 
	0 
	F 1 F 0 F 1 F 0 } I I I I 
	} 0 0 #
vertex $-1 $438 $473 #
straight-curve $-1 -125.00000000000021 141.43521958264398 -130 1.9522433554036207e-014 4.5015598583895615 8.9294993611812163 F 0 F 7.2792434794912975 #
point $-1 -125.00000000000007 174.20316982936598 -64.999999999999929 #
spline-surface $-1 forward { ref 17 } I I I I #
spline-surface $-1 forward { ref 21 } I I I I #
straight-curve $-1 -106.44544947594289 710.81381425173277 130 0 10 0 F -6.2016005747144192 F -0.6813011306795147 #
pcurve $-1 0 reversed { exppc nubs 1 open 2 
	0 1 14.003722734319352 1 
	1 0 
	1 1 
	5.3888434650661956e-014 
	spline forward { ref 17 } I I I I 
	} 0 0 #
straight-curve $-1 -5.804447763605213e-014 947.9382574055644 -130 4.1449319396906337e-015 3.7177073255561011 9.2832457815952765 F 0 F 14.003722734319352 #
tedge-edge $-1 $441 0 $417 1 $439 $474 forward 7 unknown 5.3160203664736727e-005 #
pcurve $-1 0 forward { exppc nubs 4 open 2 
	0 4 1 4 
	-7.2891135755685834 6.0151662892523063 
	-7.2891135755685905 19.789688518224921 
	-2.6262604540059638 38.753983523157146 
	-2.5141685619330785 48.190632967560333 
	5.2108864244314415 48.190632967560376 
	0 
	plane -52.108864244314447 466.0319277299609 -130 1.0830414237953302e-017 -4.5599023389334374e-020 -1 10 0 1.0830414237953302e-016 reverse_v I I I I 
	} 0 0 #
point $-1 125.00000000000014 526.18359062248396 -130.00000000000011 #
point $-1 -5.804447763605213e-014 947.9382574055644 -130 #
coedge $-1 $437 $419 $444 $471 forward $400 $-1 #
coedge $-1 $426 $444 $421 $461 forward $445 $475 #
edge $-1 $462 0 $428 0.50000000000000056 $460 $476 forward 7 unknown #
vertex $-1 $471 $477 #
straight-curve $-1 0 0 -130 -10 -1.2246467991473515e-015 0 F -9.6889309902137928 F 9.6889309902137928 #
straight-curve $-1 125.00000000000009 141.43521958264398 -130.00000000000011 1.8467725642080118e-015 10 -1.6491530584930244e-030 F 0 F 38.474837103983958 #
pcurve $-1 -1 $466 0 0 #
intcurve-curve $-1 forward { parcur full nubs 3 open 2 
	-16.842450950825167 3 0 3 
	-125.00000000000007 174.20316982936606 -64.999999999999929 
	-125.00000000000006 112.2895510804691 -64.999999999999929 
	-119.33479384722708 46.078873112727265 -64.999999999999929 
	-110.94465495106894 -1.4153001609322409e-014 -64.999999999999929 
	0 
	spline forward { ref 21 } I I I I 
	null_surface 
	nubs 1 open 2 
	-16.842450950825167 1 0 1 
	1 0.50000000000000056 
	0 0.50000000000000056 
	
	nullbs 
	I I 
	0 
	0 
	0 
	surf1 } I I #
point $-1 -110.94465495106891 -1.4153001609322412e-014 -64.999999999999943 #
straight-curve $-1 -125.00000000000021 141.43521958264398 -130 -1.8467725642080122e-015 10 0 F 0 F 38.474837103983958 #
pcurve $-1 0 reversed { exppc nubs 3 open 2 
	0 3 1 3 
	0 0 
	0.47735171922868025 0 
	0.66666666666666674 0 
	1 0 
	1.4531073070645515e-013 
	spline forward { ref 17 } I I I I 
	} 0 0 #
point $-1 -125.00000000000027 526.18359062248396 -130 #
edge $-1 $462 0 $447 1 $444 $478 forward 7 unknown #
pcurve $-1 0 reversed { exppc nubs 1 open 2 
	0 1 1 1 
	0 0 
	1 1.8729788496393858e-017 
	2.6309907211826785e-015 
	spline forward { ref 21 } I I I I 
	} 0 0 #
point $-1 -125.00000000000021 141.43521958264398 -130 #
intcurve-curve $-1 forward { exactcur full nubs 4 open 2 
	0 4 1 4 
	-125.00000000000027 526.18359062248396 -130 
	-125.00000000000034 663.92881291221011 -130 
	-78.371468784374088 853.57176296153239 -130 
	-77.250549863645233 947.93825740556429 -130 
	-3.3674708248058108e-014 947.93825740556463 -130 
	0 
	null_surface 
	null_surface 
	nullbs 
	nullbs 
	I I 
	0 
	0 
	0 
	F 1 F 0 } F 0 F 1 #
pcurve $-1 0 forward { exppc nubs 1 open 2 
	0 1 0.50000000000000056 1 
	0 0 
	1.5350408803616613e-017 0.50000000000000056 
	1.4229594493680357e-014 
	spline forward { ref 21 } I I I I 
	} 0 0 #
straight-curve $-1 -96.889309902137967 -2.8306003218644849e-014 -130 -28.110690097861895 2.8306003218644849e-014 130 F 0 F 0.50000000000000056 #
point $-1 -96.889309902137967 -2.8306003218644849e-014 -130 #
intcurve-curve $-1 forward { exactcur full nubs 3 open 2 
	0 3 1 3 
	-96.889309902137967 -2.8306003218644849e-014 -130 
	-113.66958769445424 23.167372866758562 -130 
	-125.0000000000002 86.598355443546055 -130 
	-125.00000000000021 141.43521958264398 -130 
	0 
	null_surface 
	null_surface 
	nullbs 
	nullbs 
	I I 
	0 
	0 
	0 
	F 1 F 0 } F 0 F 1 #
End-of-ACIS-data 